<?xml version="1.0" encoding="UTF-8"?>
<mxfile host="app.diagrams.net" modified="2024-07-10T04:43:27.752Z" agent="Mozilla/5.0 (Windows NT 10.0; Win64; x64) AppleWebKit/537.36 (KHTML, like Gecko) Chrome/123.0.0.0 Safari/537.36 OPR/109.0.0.0 (Edition std-1)" etag="FMgbhubP--DkT8-Mwtvm" version="24.6.4" type="google">
  <diagram id="C5RBs43oDa-KdzZeNtuy" name="Page-1">
    <mxGraphModel dx="1200" dy="159" grid="1" gridSize="10" guides="1" tooltips="1" connect="1" arrows="1" fold="1" page="1" pageScale="1" pageWidth="827" pageHeight="1169" math="0" shadow="0">
      <root>
        <mxCell id="WIyWlLk6GJQsqaUBKTNV-0" />
        <mxCell id="WIyWlLk6GJQsqaUBKTNV-1" parent="WIyWlLk6GJQsqaUBKTNV-0" />
        <mxCell id="3COiVJJGD3iaCTCnuNtf-0" value="Client" style="swimlane;fontStyle=1;align=center;verticalAlign=top;childLayout=stackLayout;horizontal=1;startSize=26;horizontalStack=0;resizeParent=1;resizeParentMax=0;resizeLast=0;collapsible=1;marginBottom=0;whiteSpace=wrap;html=1;" vertex="1" parent="WIyWlLk6GJQsqaUBKTNV-1">
          <mxGeometry x="200" y="1188" width="250" height="290" as="geometry" />
        </mxCell>
        <mxCell id="3COiVJJGD3iaCTCnuNtf-1" value="- name: String&lt;div&gt;- phoneNumber: String&lt;/div&gt;&lt;div&gt;- address: String&lt;/div&gt;&lt;div&gt;- pets: Pet[]&lt;/div&gt;&lt;div&gt;- bookings: Booking[]&lt;/div&gt;" style="text;strokeColor=none;fillColor=none;align=left;verticalAlign=top;spacingLeft=4;spacingRight=4;overflow=hidden;rotatable=0;points=[[0,0.5],[1,0.5]];portConstraint=eastwest;whiteSpace=wrap;html=1;" vertex="1" parent="3COiVJJGD3iaCTCnuNtf-0">
          <mxGeometry y="26" width="250" height="74" as="geometry" />
        </mxCell>
        <mxCell id="3COiVJJGD3iaCTCnuNtf-2" value="" style="line;strokeWidth=1;fillColor=none;align=left;verticalAlign=middle;spacingTop=-1;spacingLeft=3;spacingRight=3;rotatable=0;labelPosition=right;points=[];portConstraint=eastwest;strokeColor=inherit;" vertex="1" parent="3COiVJJGD3iaCTCnuNtf-0">
          <mxGeometry y="100" width="250" height="8" as="geometry" />
        </mxCell>
        <mxCell id="3COiVJJGD3iaCTCnuNtf-3" value="+ Client(name : String, phoneNumber : String, address : String, bookings: Booking[])&lt;div&gt;+ getName(): String&lt;/div&gt;&lt;div&gt;+ getPhoneNumber(): String&lt;/div&gt;&lt;div&gt;+ getAddress(): String&lt;/div&gt;&lt;div&gt;+ getPets(): Pet[]&lt;/div&gt;&lt;div&gt;+ setName(name: String)&lt;/div&gt;&lt;div&gt;+ setPhoneNumber(phoneNumber: String)&lt;/div&gt;&lt;div&gt;+ addPet(pet: Pet)&lt;/div&gt;&lt;div&gt;+ removePet(pet: Pet)&lt;/div&gt;&lt;div&gt;+ addBooking(booking: Booking)&lt;/div&gt;&lt;div&gt;+ removeBooking(booking: Booking)&lt;/div&gt;" style="text;strokeColor=none;fillColor=none;align=left;verticalAlign=top;spacingLeft=4;spacingRight=4;overflow=hidden;rotatable=0;points=[[0,0.5],[1,0.5]];portConstraint=eastwest;whiteSpace=wrap;html=1;" vertex="1" parent="3COiVJJGD3iaCTCnuNtf-0">
          <mxGeometry y="108" width="250" height="182" as="geometry" />
        </mxCell>
        <mxCell id="3COiVJJGD3iaCTCnuNtf-4" value="Pet" style="swimlane;fontStyle=1;align=center;verticalAlign=top;childLayout=stackLayout;horizontal=1;startSize=26;horizontalStack=0;resizeParent=1;resizeParentMax=0;resizeLast=0;collapsible=1;marginBottom=0;whiteSpace=wrap;html=1;" vertex="1" parent="WIyWlLk6GJQsqaUBKTNV-1">
          <mxGeometry x="834" y="1188" width="250" height="300" as="geometry" />
        </mxCell>
        <mxCell id="3COiVJJGD3iaCTCnuNtf-5" value="- petName: String&lt;div&gt;- petAge : String&lt;/div&gt;&lt;div&gt;- petType : String&lt;/div&gt;&lt;div&gt;- petSpecies : String&lt;br&gt;&lt;div&gt;- careProfile: CareProfile&lt;/div&gt;&lt;/div&gt;&lt;div&gt;- owner : Client&lt;/div&gt;" style="text;strokeColor=none;fillColor=none;align=left;verticalAlign=top;spacingLeft=4;spacingRight=4;overflow=hidden;rotatable=0;points=[[0,0.5],[1,0.5]];portConstraint=eastwest;whiteSpace=wrap;html=1;" vertex="1" parent="3COiVJJGD3iaCTCnuNtf-4">
          <mxGeometry y="26" width="250" height="104" as="geometry" />
        </mxCell>
        <mxCell id="3COiVJJGD3iaCTCnuNtf-6" value="" style="line;strokeWidth=1;fillColor=none;align=left;verticalAlign=middle;spacingTop=-1;spacingLeft=3;spacingRight=3;rotatable=0;labelPosition=right;points=[];portConstraint=eastwest;strokeColor=inherit;" vertex="1" parent="3COiVJJGD3iaCTCnuNtf-4">
          <mxGeometry y="130" width="250" height="10" as="geometry" />
        </mxCell>
        <mxCell id="3COiVJJGD3iaCTCnuNtf-7" value="+ Pet( petName : String, petAge : String, petType : String, petSpecies: String)&lt;div&gt;&lt;div&gt;&lt;div&gt;+ getPetName() : String&lt;/div&gt;&lt;div&gt;+ getSetAge() : String&lt;/div&gt;&lt;div&gt;+ getPetType() : String&lt;/div&gt;&lt;div&gt;+ getPetSpecies() : String&lt;/div&gt;&lt;/div&gt;&lt;/div&gt;&lt;div&gt;+ setPetName(petName : String) : void&lt;/div&gt;&lt;div&gt;+ setPetAge(petAge : String) : void&amp;nbsp;&lt;/div&gt;&lt;div&gt;+ setPetType(petType : String) : void&lt;/div&gt;&lt;div&gt;+ setPetSpecies(petSpecies : String) : void&lt;/div&gt;" style="text;strokeColor=none;fillColor=none;align=left;verticalAlign=top;spacingLeft=4;spacingRight=4;overflow=hidden;rotatable=0;points=[[0,0.5],[1,0.5]];portConstraint=eastwest;whiteSpace=wrap;html=1;" vertex="1" parent="3COiVJJGD3iaCTCnuNtf-4">
          <mxGeometry y="140" width="250" height="160" as="geometry" />
        </mxCell>
        <mxCell id="3COiVJJGD3iaCTCnuNtf-10" value="CareProfile" style="swimlane;fontStyle=1;align=center;verticalAlign=top;childLayout=stackLayout;horizontal=1;startSize=26;horizontalStack=0;resizeParent=1;resizeParentMax=0;resizeLast=0;collapsible=1;marginBottom=0;whiteSpace=wrap;html=1;" vertex="1" parent="WIyWlLk6GJQsqaUBKTNV-1">
          <mxGeometry x="827" y="1600" width="250" height="208" as="geometry" />
        </mxCell>
        <mxCell id="3COiVJJGD3iaCTCnuNtf-11" value="&lt;div&gt;- feedingInstructions: FeedingInformation&lt;/div&gt;&lt;div&gt;- medicationList: MedicationList&lt;/div&gt;&lt;div&gt;- pet: Pet&lt;/div&gt;" style="text;strokeColor=none;fillColor=none;align=left;verticalAlign=top;spacingLeft=4;spacingRight=4;overflow=hidden;rotatable=0;points=[[0,0.5],[1,0.5]];portConstraint=eastwest;whiteSpace=wrap;html=1;" vertex="1" parent="3COiVJJGD3iaCTCnuNtf-10">
          <mxGeometry y="26" width="250" height="74" as="geometry" />
        </mxCell>
        <mxCell id="3COiVJJGD3iaCTCnuNtf-12" value="" style="line;strokeWidth=1;fillColor=none;align=left;verticalAlign=middle;spacingTop=-1;spacingLeft=3;spacingRight=3;rotatable=0;labelPosition=right;points=[];portConstraint=eastwest;strokeColor=inherit;" vertex="1" parent="3COiVJJGD3iaCTCnuNtf-10">
          <mxGeometry y="100" width="250" height="8" as="geometry" />
        </mxCell>
        <mxCell id="3COiVJJGD3iaCTCnuNtf-13" value="+ CareProfile(feedingInstructions: FeedingInformation, medicationList: MedicationList, pet: Pet)" style="text;strokeColor=none;fillColor=none;align=left;verticalAlign=top;spacingLeft=4;spacingRight=4;overflow=hidden;rotatable=0;points=[[0,0.5],[1,0.5]];portConstraint=eastwest;whiteSpace=wrap;html=1;" vertex="1" parent="3COiVJJGD3iaCTCnuNtf-10">
          <mxGeometry y="108" width="250" height="100" as="geometry" />
        </mxCell>
        <mxCell id="3COiVJJGD3iaCTCnuNtf-14" value="PrintCareProfile" style="swimlane;fontStyle=1;align=center;verticalAlign=top;childLayout=stackLayout;horizontal=1;startSize=26;horizontalStack=0;resizeParent=1;resizeParentMax=0;resizeLast=0;collapsible=1;marginBottom=0;whiteSpace=wrap;html=1;" vertex="1" parent="WIyWlLk6GJQsqaUBKTNV-1">
          <mxGeometry x="1116" y="1490" width="250" height="90" as="geometry" />
        </mxCell>
        <mxCell id="3COiVJJGD3iaCTCnuNtf-15" value="&lt;div&gt;- petProfile: CareProfile&lt;/div&gt;" style="text;strokeColor=none;fillColor=none;align=left;verticalAlign=top;spacingLeft=4;spacingRight=4;overflow=hidden;rotatable=0;points=[[0,0.5],[1,0.5]];portConstraint=eastwest;whiteSpace=wrap;html=1;" vertex="1" parent="3COiVJJGD3iaCTCnuNtf-14">
          <mxGeometry y="26" width="250" height="24" as="geometry" />
        </mxCell>
        <mxCell id="3COiVJJGD3iaCTCnuNtf-16" value="" style="line;strokeWidth=1;fillColor=none;align=left;verticalAlign=middle;spacingTop=-1;spacingLeft=3;spacingRight=3;rotatable=0;labelPosition=right;points=[];portConstraint=eastwest;strokeColor=inherit;" vertex="1" parent="3COiVJJGD3iaCTCnuNtf-14">
          <mxGeometry y="50" width="250" height="8" as="geometry" />
        </mxCell>
        <mxCell id="3COiVJJGD3iaCTCnuNtf-17" value="+ print(petProfile: CareProfile)" style="text;strokeColor=none;fillColor=none;align=left;verticalAlign=top;spacingLeft=4;spacingRight=4;overflow=hidden;rotatable=0;points=[[0,0.5],[1,0.5]];portConstraint=eastwest;whiteSpace=wrap;html=1;" vertex="1" parent="3COiVJJGD3iaCTCnuNtf-14">
          <mxGeometry y="58" width="250" height="32" as="geometry" />
        </mxCell>
        <mxCell id="3COiVJJGD3iaCTCnuNtf-80" style="edgeStyle=orthogonalEdgeStyle;rounded=0;orthogonalLoop=1;jettySize=auto;html=1;exitX=0.5;exitY=0;exitDx=0;exitDy=0;entryX=0.5;entryY=1;entryDx=0;entryDy=0;" edge="1" parent="WIyWlLk6GJQsqaUBKTNV-1" source="3COiVJJGD3iaCTCnuNtf-81" target="3COiVJJGD3iaCTCnuNtf-22">
          <mxGeometry relative="1" as="geometry">
            <mxPoint x="645.5882352941176" y="1850" as="targetPoint" />
            <mxPoint x="645" y="1900" as="sourcePoint" />
            <Array as="points">
              <mxPoint x="645" y="1860" />
              <mxPoint x="645" y="1860" />
            </Array>
          </mxGeometry>
        </mxCell>
        <mxCell id="3COiVJJGD3iaCTCnuNtf-22" value="Booking" style="swimlane;fontStyle=1;align=center;verticalAlign=top;childLayout=stackLayout;horizontal=1;startSize=26;horizontalStack=0;resizeParent=1;resizeParentMax=0;resizeLast=0;collapsible=1;marginBottom=0;whiteSpace=wrap;html=1;" vertex="1" parent="WIyWlLk6GJQsqaUBKTNV-1">
          <mxGeometry x="520" y="1458" width="250" height="360" as="geometry" />
        </mxCell>
        <mxCell id="3COiVJJGD3iaCTCnuNtf-23" value="- bookingID: String&lt;div&gt;- pet: Pet&lt;/div&gt;&lt;div&gt;- client: Client&lt;/div&gt;&lt;div&gt;- startDate: String&lt;/div&gt;&lt;div&gt;- endDate: String&lt;/div&gt;&lt;div&gt;- payments: BillingPayment[]&lt;/div&gt;" style="text;strokeColor=none;fillColor=none;align=left;verticalAlign=top;spacingLeft=4;spacingRight=4;overflow=hidden;rotatable=0;points=[[0,0.5],[1,0.5]];portConstraint=eastwest;whiteSpace=wrap;html=1;" vertex="1" parent="3COiVJJGD3iaCTCnuNtf-22">
          <mxGeometry y="26" width="250" height="94" as="geometry" />
        </mxCell>
        <mxCell id="3COiVJJGD3iaCTCnuNtf-24" value="" style="line;strokeWidth=1;fillColor=none;align=left;verticalAlign=middle;spacingTop=-1;spacingLeft=3;spacingRight=3;rotatable=0;labelPosition=right;points=[];portConstraint=eastwest;strokeColor=inherit;" vertex="1" parent="3COiVJJGD3iaCTCnuNtf-22">
          <mxGeometry y="120" width="250" height="8" as="geometry" />
        </mxCell>
        <mxCell id="3COiVJJGD3iaCTCnuNtf-25" value="+ Booking(bookingID: String, pet: Pet, client: Client, startDate: String, endDate: String, payments: BillingPayment[])&lt;div&gt;+ getBookingID() : String&lt;/div&gt;&lt;div&gt;+ getPet() : Pet&lt;/div&gt;&lt;div&gt;+ getClient() : Client&lt;/div&gt;&lt;div&gt;&lt;div&gt;+ getStartDate(): String&lt;br&gt;&lt;/div&gt;&lt;div&gt;+ getEndDate(): String&lt;/div&gt;&lt;/div&gt;&lt;div&gt;+ getPayments(): BillingPayment[]&lt;/div&gt;&lt;div&gt;+ setBookingID(bookingID: String)&lt;/div&gt;&lt;div&gt;+ setPet(pet: String)&lt;br&gt;&lt;/div&gt;&lt;div&gt;+ setStartDate(startDate: String)&lt;br&gt;&lt;/div&gt;&lt;div&gt;+ setEndDate(endDate: String)&lt;br&gt;&lt;/div&gt;&lt;div&gt;+ addPayment(payment: BillingPayment)&lt;/div&gt;&lt;div&gt;+ removePayment(payment: BillingPayment)&lt;/div&gt;&lt;div&gt;&lt;br&gt;&lt;/div&gt;" style="text;strokeColor=none;fillColor=none;align=left;verticalAlign=top;spacingLeft=4;spacingRight=4;overflow=hidden;rotatable=0;points=[[0,0.5],[1,0.5]];portConstraint=eastwest;whiteSpace=wrap;html=1;" vertex="1" parent="3COiVJJGD3iaCTCnuNtf-22">
          <mxGeometry y="128" width="250" height="232" as="geometry" />
        </mxCell>
        <mxCell id="3COiVJJGD3iaCTCnuNtf-30" value="BillingPayment" style="swimlane;fontStyle=1;align=center;verticalAlign=top;childLayout=stackLayout;horizontal=1;startSize=26;horizontalStack=0;resizeParent=1;resizeParentMax=0;resizeLast=0;collapsible=1;marginBottom=0;whiteSpace=wrap;html=1;" vertex="1" parent="WIyWlLk6GJQsqaUBKTNV-1">
          <mxGeometry x="150" y="1498" width="250" height="320" as="geometry" />
        </mxCell>
        <mxCell id="3COiVJJGD3iaCTCnuNtf-31" value="&lt;div&gt;- paymentID: String&lt;/div&gt;&lt;div&gt;- booking: Booking&lt;/div&gt;&lt;div&gt;- amount: String&lt;/div&gt;&lt;div&gt;- paymentType: String&lt;/div&gt;&lt;div&gt;- paymentDate: String&lt;/div&gt;" style="text;strokeColor=none;fillColor=none;align=left;verticalAlign=top;spacingLeft=4;spacingRight=4;overflow=hidden;rotatable=0;points=[[0,0.5],[1,0.5]];portConstraint=eastwest;whiteSpace=wrap;html=1;" vertex="1" parent="3COiVJJGD3iaCTCnuNtf-30">
          <mxGeometry y="26" width="250" height="84" as="geometry" />
        </mxCell>
        <mxCell id="3COiVJJGD3iaCTCnuNtf-32" value="" style="line;strokeWidth=1;fillColor=none;align=left;verticalAlign=middle;spacingTop=-1;spacingLeft=3;spacingRight=3;rotatable=0;labelPosition=right;points=[];portConstraint=eastwest;strokeColor=inherit;" vertex="1" parent="3COiVJJGD3iaCTCnuNtf-30">
          <mxGeometry y="110" width="250" height="8" as="geometry" />
        </mxCell>
        <mxCell id="3COiVJJGD3iaCTCnuNtf-33" value="+ BillingPayment(paymentID: String, booking: Booking, amount: String, paymentType: String, paymentDate: String)&lt;div&gt;+ setPaymentID(paymentID: String)&lt;/div&gt;&lt;div&gt;+ setBooking(booking: Booking)&lt;/div&gt;&lt;div&gt;+ setAmount(amount: String)&lt;/div&gt;&lt;div&gt;+ setPaymentType(paymentType: String)&lt;/div&gt;&lt;div&gt;+ setPaymentDate(paymentDate: String)&lt;/div&gt;&lt;div&gt;&lt;div&gt;+ getPaymentID(): String&lt;/div&gt;&lt;div&gt;+ getBooking():&amp;nbsp;&lt;span style=&quot;background-color: initial;&quot;&gt;Booking&lt;/span&gt;&lt;/div&gt;&lt;div&gt;+ getAmount()&lt;span style=&quot;background-color: initial;&quot;&gt;: String&lt;/span&gt;&lt;/div&gt;&lt;div&gt;+ getPaymentType()&lt;span style=&quot;background-color: initial;&quot;&gt;: String&lt;/span&gt;&lt;/div&gt;&lt;div&gt;+ getPaymentDate()&lt;span style=&quot;background-color: initial;&quot;&gt;: String&lt;/span&gt;&lt;/div&gt;&lt;/div&gt;" style="text;strokeColor=none;fillColor=none;align=left;verticalAlign=top;spacingLeft=4;spacingRight=4;overflow=hidden;rotatable=0;points=[[0,0.5],[1,0.5]];portConstraint=eastwest;whiteSpace=wrap;html=1;" vertex="1" parent="3COiVJJGD3iaCTCnuNtf-30">
          <mxGeometry y="118" width="250" height="202" as="geometry" />
        </mxCell>
        <mxCell id="3COiVJJGD3iaCTCnuNtf-34" value="IllegalArgumentException" style="swimlane;fontStyle=1;align=center;verticalAlign=top;childLayout=stackLayout;horizontal=1;startSize=26;horizontalStack=0;resizeParent=1;resizeParentMax=0;resizeLast=0;collapsible=1;marginBottom=0;whiteSpace=wrap;html=1;" vertex="1" parent="WIyWlLk6GJQsqaUBKTNV-1">
          <mxGeometry x="290" y="1908" width="200" height="34" as="geometry" />
        </mxCell>
        <mxCell id="3COiVJJGD3iaCTCnuNtf-36" value="" style="line;strokeWidth=1;fillColor=none;align=left;verticalAlign=middle;spacingTop=-1;spacingLeft=3;spacingRight=3;rotatable=0;labelPosition=right;points=[];portConstraint=eastwest;strokeColor=inherit;" vertex="1" parent="3COiVJJGD3iaCTCnuNtf-34">
          <mxGeometry y="26" width="200" height="8" as="geometry" />
        </mxCell>
        <mxCell id="3COiVJJGD3iaCTCnuNtf-38" value="Medication" style="swimlane;fontStyle=1;align=center;verticalAlign=top;childLayout=stackLayout;horizontal=1;startSize=26;horizontalStack=0;resizeParent=1;resizeParentMax=0;resizeLast=0;collapsible=1;marginBottom=0;whiteSpace=wrap;html=1;" vertex="1" parent="WIyWlLk6GJQsqaUBKTNV-1">
          <mxGeometry x="1404" y="1600" width="250" height="200" as="geometry" />
        </mxCell>
        <mxCell id="3COiVJJGD3iaCTCnuNtf-39" value="&lt;div&gt;- medName: String&lt;/div&gt;&lt;div&gt;- administeringInstructions: String&lt;/div&gt;" style="text;strokeColor=none;fillColor=none;align=left;verticalAlign=top;spacingLeft=4;spacingRight=4;overflow=hidden;rotatable=0;points=[[0,0.5],[1,0.5]];portConstraint=eastwest;whiteSpace=wrap;html=1;" vertex="1" parent="3COiVJJGD3iaCTCnuNtf-38">
          <mxGeometry y="26" width="250" height="54" as="geometry" />
        </mxCell>
        <mxCell id="3COiVJJGD3iaCTCnuNtf-40" value="" style="line;strokeWidth=1;fillColor=none;align=left;verticalAlign=middle;spacingTop=-1;spacingLeft=3;spacingRight=3;rotatable=0;labelPosition=right;points=[];portConstraint=eastwest;strokeColor=inherit;" vertex="1" parent="3COiVJJGD3iaCTCnuNtf-38">
          <mxGeometry y="80" width="250" height="8" as="geometry" />
        </mxCell>
        <mxCell id="3COiVJJGD3iaCTCnuNtf-41" value="+ Medication(medName: String, administeringInstructions: String)&lt;div&gt;+ getMedName(): String&lt;/div&gt;&lt;div&gt;+ setMedName(medName: String)&lt;/div&gt;&lt;div&gt;+ getInstructions(): String&lt;/div&gt;&lt;div&gt;+ setInstructions(administeringInstructions: String)&lt;/div&gt;" style="text;strokeColor=none;fillColor=none;align=left;verticalAlign=top;spacingLeft=4;spacingRight=4;overflow=hidden;rotatable=0;points=[[0,0.5],[1,0.5]];portConstraint=eastwest;whiteSpace=wrap;html=1;" vertex="1" parent="3COiVJJGD3iaCTCnuNtf-38">
          <mxGeometry y="88" width="250" height="112" as="geometry" />
        </mxCell>
        <mxCell id="3COiVJJGD3iaCTCnuNtf-42" value="MedicationList" style="swimlane;fontStyle=1;align=center;verticalAlign=top;childLayout=stackLayout;horizontal=1;startSize=26;horizontalStack=0;resizeParent=1;resizeParentMax=0;resizeLast=0;collapsible=1;marginBottom=0;whiteSpace=wrap;html=1;" vertex="1" parent="WIyWlLk6GJQsqaUBKTNV-1">
          <mxGeometry x="1115.5" y="1600" width="250" height="188" as="geometry" />
        </mxCell>
        <mxCell id="3COiVJJGD3iaCTCnuNtf-43" value="&lt;div&gt;- medications: Medication[]&lt;/div&gt;" style="text;strokeColor=none;fillColor=none;align=left;verticalAlign=top;spacingLeft=4;spacingRight=4;overflow=hidden;rotatable=0;points=[[0,0.5],[1,0.5]];portConstraint=eastwest;whiteSpace=wrap;html=1;" vertex="1" parent="3COiVJJGD3iaCTCnuNtf-42">
          <mxGeometry y="26" width="250" height="54" as="geometry" />
        </mxCell>
        <mxCell id="3COiVJJGD3iaCTCnuNtf-44" value="" style="line;strokeWidth=1;fillColor=none;align=left;verticalAlign=middle;spacingTop=-1;spacingLeft=3;spacingRight=3;rotatable=0;labelPosition=right;points=[];portConstraint=eastwest;strokeColor=inherit;" vertex="1" parent="3COiVJJGD3iaCTCnuNtf-42">
          <mxGeometry y="80" width="250" height="8" as="geometry" />
        </mxCell>
        <mxCell id="3COiVJJGD3iaCTCnuNtf-45" value="+ MedicationList(medications: Medication[])" style="text;strokeColor=none;fillColor=none;align=left;verticalAlign=top;spacingLeft=4;spacingRight=4;overflow=hidden;rotatable=0;points=[[0,0.5],[1,0.5]];portConstraint=eastwest;whiteSpace=wrap;html=1;" vertex="1" parent="3COiVJJGD3iaCTCnuNtf-42">
          <mxGeometry y="88" width="250" height="100" as="geometry" />
        </mxCell>
        <mxCell id="3COiVJJGD3iaCTCnuNtf-46" value="FeedingInformation" style="swimlane;fontStyle=1;align=center;verticalAlign=top;childLayout=stackLayout;horizontal=1;startSize=26;horizontalStack=0;resizeParent=1;resizeParentMax=0;resizeLast=0;collapsible=1;marginBottom=0;whiteSpace=wrap;html=1;" vertex="1" parent="WIyWlLk6GJQsqaUBKTNV-1">
          <mxGeometry x="827" y="1900" width="250" height="178" as="geometry" />
        </mxCell>
        <mxCell id="3COiVJJGD3iaCTCnuNtf-47" value="&lt;div&gt;- foodName: String&lt;/div&gt;&lt;div&gt;- instructions: String&lt;/div&gt;" style="text;strokeColor=none;fillColor=none;align=left;verticalAlign=top;spacingLeft=4;spacingRight=4;overflow=hidden;rotatable=0;points=[[0,0.5],[1,0.5]];portConstraint=eastwest;whiteSpace=wrap;html=1;" vertex="1" parent="3COiVJJGD3iaCTCnuNtf-46">
          <mxGeometry y="26" width="250" height="44" as="geometry" />
        </mxCell>
        <mxCell id="3COiVJJGD3iaCTCnuNtf-48" value="" style="line;strokeWidth=1;fillColor=none;align=left;verticalAlign=middle;spacingTop=-1;spacingLeft=3;spacingRight=3;rotatable=0;labelPosition=right;points=[];portConstraint=eastwest;strokeColor=inherit;" vertex="1" parent="3COiVJJGD3iaCTCnuNtf-46">
          <mxGeometry y="70" width="250" height="8" as="geometry" />
        </mxCell>
        <mxCell id="3COiVJJGD3iaCTCnuNtf-49" value="+ FeedingInformation(foodName: String, instructions: String)&lt;div&gt;+ setFoodName(foodName: String)&lt;/div&gt;&lt;div&gt;+ getFoodName(): String&lt;/div&gt;&lt;div&gt;+setInstructions(instructions: String)&lt;/div&gt;&lt;div&gt;+ getInstructions(): String&lt;/div&gt;" style="text;strokeColor=none;fillColor=none;align=left;verticalAlign=top;spacingLeft=4;spacingRight=4;overflow=hidden;rotatable=0;points=[[0,0.5],[1,0.5]];portConstraint=eastwest;whiteSpace=wrap;html=1;" vertex="1" parent="3COiVJJGD3iaCTCnuNtf-46">
          <mxGeometry y="78" width="250" height="100" as="geometry" />
        </mxCell>
        <mxCell id="3COiVJJGD3iaCTCnuNtf-55" value="" style="endArrow=diamondThin;endFill=1;endSize=24;html=1;rounded=0;exitX=0.5;exitY=0;exitDx=0;exitDy=0;entryX=0.468;entryY=1.001;entryDx=0;entryDy=0;entryPerimeter=0;" edge="1" parent="WIyWlLk6GJQsqaUBKTNV-1" source="3COiVJJGD3iaCTCnuNtf-10" target="3COiVJJGD3iaCTCnuNtf-7">
          <mxGeometry width="160" relative="1" as="geometry">
            <mxPoint x="844" y="1375" as="sourcePoint" />
            <mxPoint x="950" y="1490" as="targetPoint" />
          </mxGeometry>
        </mxCell>
        <mxCell id="3COiVJJGD3iaCTCnuNtf-56" value="" style="endArrow=diamondThin;endFill=1;endSize=24;html=1;rounded=0;exitX=0.5;exitY=0;exitDx=0;exitDy=0;entryX=0.5;entryY=1;entryDx=0;entryDy=0;" edge="1" parent="WIyWlLk6GJQsqaUBKTNV-1" source="3COiVJJGD3iaCTCnuNtf-46" target="3COiVJJGD3iaCTCnuNtf-10">
          <mxGeometry width="160" relative="1" as="geometry">
            <mxPoint x="962" y="1610" as="sourcePoint" />
            <mxPoint x="961" y="1498" as="targetPoint" />
          </mxGeometry>
        </mxCell>
        <mxCell id="3COiVJJGD3iaCTCnuNtf-57" value="" style="endArrow=diamondThin;endFill=1;endSize=24;html=1;rounded=0;exitX=0.491;exitY=1.02;exitDx=0;exitDy=0;entryX=0.771;entryY=1.004;entryDx=0;entryDy=0;entryPerimeter=0;exitPerimeter=0;" edge="1" parent="WIyWlLk6GJQsqaUBKTNV-1" source="3COiVJJGD3iaCTCnuNtf-45" target="3COiVJJGD3iaCTCnuNtf-13">
          <mxGeometry width="160" relative="1" as="geometry">
            <mxPoint x="962" y="1910" as="sourcePoint" />
            <mxPoint x="962" y="1818" as="targetPoint" />
            <Array as="points">
              <mxPoint x="1238" y="1860" />
              <mxPoint x="1020" y="1860" />
            </Array>
          </mxGeometry>
        </mxCell>
        <mxCell id="3COiVJJGD3iaCTCnuNtf-58" value="" style="endArrow=diamondThin;endFill=1;endSize=24;html=1;rounded=0;exitX=0.479;exitY=1.018;exitDx=0;exitDy=0;exitPerimeter=0;" edge="1" parent="WIyWlLk6GJQsqaUBKTNV-1" source="3COiVJJGD3iaCTCnuNtf-41">
          <mxGeometry width="160" relative="1" as="geometry">
            <mxPoint x="1538" y="1800" as="sourcePoint" />
            <mxPoint x="1320" y="1780" as="targetPoint" />
            <Array as="points">
              <mxPoint x="1524" y="1870" />
              <mxPoint x="1320" y="1870" />
            </Array>
          </mxGeometry>
        </mxCell>
        <mxCell id="3COiVJJGD3iaCTCnuNtf-59" value="&amp;lt;&amp;lt;uses&amp;gt;&amp;gt;" style="html=1;verticalAlign=bottom;labelBackgroundColor=none;endArrow=open;endFill=0;dashed=1;rounded=0;exitX=0;exitY=0.25;exitDx=0;exitDy=0;entryX=0.75;entryY=0;entryDx=0;entryDy=0;" edge="1" parent="WIyWlLk6GJQsqaUBKTNV-1" source="3COiVJJGD3iaCTCnuNtf-14" target="3COiVJJGD3iaCTCnuNtf-10">
          <mxGeometry width="160" relative="1" as="geometry">
            <mxPoint x="990" y="1640" as="sourcePoint" />
            <mxPoint x="1020" y="1520" as="targetPoint" />
            <Array as="points">
              <mxPoint x="1015" y="1513" />
            </Array>
          </mxGeometry>
        </mxCell>
        <mxCell id="3COiVJJGD3iaCTCnuNtf-63" value="1" style="text;html=1;align=center;verticalAlign=middle;whiteSpace=wrap;rounded=0;" vertex="1" parent="WIyWlLk6GJQsqaUBKTNV-1">
          <mxGeometry x="910" y="1500" width="60" height="30" as="geometry" />
        </mxCell>
        <mxCell id="3COiVJJGD3iaCTCnuNtf-65" value="1" style="text;html=1;align=center;verticalAlign=middle;whiteSpace=wrap;rounded=0;" vertex="1" parent="WIyWlLk6GJQsqaUBKTNV-1">
          <mxGeometry x="910" y="1570" width="60" height="30" as="geometry" />
        </mxCell>
        <mxCell id="3COiVJJGD3iaCTCnuNtf-66" value="1" style="text;html=1;align=center;verticalAlign=middle;whiteSpace=wrap;rounded=0;" vertex="1" parent="WIyWlLk6GJQsqaUBKTNV-1">
          <mxGeometry x="910" y="1808" width="60" height="30" as="geometry" />
        </mxCell>
        <mxCell id="3COiVJJGD3iaCTCnuNtf-67" value="0...1" style="text;html=1;align=center;verticalAlign=middle;whiteSpace=wrap;rounded=0;" vertex="1" parent="WIyWlLk6GJQsqaUBKTNV-1">
          <mxGeometry x="910" y="1878" width="60" height="30" as="geometry" />
        </mxCell>
        <mxCell id="3COiVJJGD3iaCTCnuNtf-69" value="1" style="text;html=1;align=center;verticalAlign=middle;whiteSpace=wrap;rounded=0;" vertex="1" parent="WIyWlLk6GJQsqaUBKTNV-1">
          <mxGeometry x="1000" y="1830" width="60" height="30" as="geometry" />
        </mxCell>
        <mxCell id="3COiVJJGD3iaCTCnuNtf-70" value="0...1" style="text;html=1;align=center;verticalAlign=middle;whiteSpace=wrap;rounded=0;" vertex="1" parent="WIyWlLk6GJQsqaUBKTNV-1">
          <mxGeometry x="1190" y="1788" width="60" height="30" as="geometry" />
        </mxCell>
        <mxCell id="3COiVJJGD3iaCTCnuNtf-71" value="1" style="text;html=1;align=center;verticalAlign=middle;whiteSpace=wrap;rounded=0;" vertex="1" parent="WIyWlLk6GJQsqaUBKTNV-1">
          <mxGeometry x="1300" y="1788" width="60" height="30" as="geometry" />
        </mxCell>
        <mxCell id="3COiVJJGD3iaCTCnuNtf-73" value="1...*" style="text;html=1;align=center;verticalAlign=middle;whiteSpace=wrap;rounded=0;" vertex="1" parent="WIyWlLk6GJQsqaUBKTNV-1">
          <mxGeometry x="1480" y="1800" width="60" height="30" as="geometry" />
        </mxCell>
        <mxCell id="3COiVJJGD3iaCTCnuNtf-74" value="" style="endArrow=none;html=1;rounded=0;entryX=0;entryY=0.064;entryDx=0;entryDy=0;entryPerimeter=0;exitX=1.001;exitY=0.229;exitDx=0;exitDy=0;exitPerimeter=0;" edge="1" parent="WIyWlLk6GJQsqaUBKTNV-1" source="3COiVJJGD3iaCTCnuNtf-3" target="3COiVJJGD3iaCTCnuNtf-7">
          <mxGeometry width="50" height="50" relative="1" as="geometry">
            <mxPoint x="470" y="1360" as="sourcePoint" />
            <mxPoint x="830" y="1339" as="targetPoint" />
          </mxGeometry>
        </mxCell>
        <mxCell id="3COiVJJGD3iaCTCnuNtf-75" value="" style="endArrow=none;dashed=1;html=1;rounded=0;exitX=0.5;exitY=0;exitDx=0;exitDy=0;" edge="1" parent="WIyWlLk6GJQsqaUBKTNV-1" source="3COiVJJGD3iaCTCnuNtf-22">
          <mxGeometry width="50" height="50" relative="1" as="geometry">
            <mxPoint x="620" y="1320" as="sourcePoint" />
            <mxPoint x="645" y="1340" as="targetPoint" />
          </mxGeometry>
        </mxCell>
        <mxCell id="3COiVJJGD3iaCTCnuNtf-76" value="" style="endArrow=none;html=1;rounded=0;entryX=0.002;entryY=0.561;entryDx=0;entryDy=0;exitX=1;exitY=0.5;exitDx=0;exitDy=0;entryPerimeter=0;" edge="1" parent="WIyWlLk6GJQsqaUBKTNV-1" source="3COiVJJGD3iaCTCnuNtf-33" target="3COiVJJGD3iaCTCnuNtf-25">
          <mxGeometry width="50" height="50" relative="1" as="geometry">
            <mxPoint x="480" y="1440" as="sourcePoint" />
            <mxPoint x="844" y="1348" as="targetPoint" />
          </mxGeometry>
        </mxCell>
        <mxCell id="3COiVJJGD3iaCTCnuNtf-77" value="0...*" style="text;html=1;align=center;verticalAlign=middle;whiteSpace=wrap;rounded=0;" vertex="1" parent="WIyWlLk6GJQsqaUBKTNV-1">
          <mxGeometry x="384" y="1689" width="60" height="30" as="geometry" />
        </mxCell>
        <mxCell id="3COiVJJGD3iaCTCnuNtf-78" value="1" style="text;html=1;align=center;verticalAlign=middle;whiteSpace=wrap;rounded=0;" vertex="1" parent="WIyWlLk6GJQsqaUBKTNV-1">
          <mxGeometry x="480" y="1689" width="60" height="30" as="geometry" />
        </mxCell>
        <mxCell id="3COiVJJGD3iaCTCnuNtf-81" value="Application" style="swimlane;fontStyle=1;align=center;verticalAlign=top;childLayout=stackLayout;horizontal=1;startSize=26;horizontalStack=0;resizeParent=1;resizeParentMax=0;resizeLast=0;collapsible=1;marginBottom=0;whiteSpace=wrap;html=1;" vertex="1" parent="WIyWlLk6GJQsqaUBKTNV-1">
          <mxGeometry x="565" y="1908" width="160" height="86" as="geometry" />
        </mxCell>
        <mxCell id="3COiVJJGD3iaCTCnuNtf-82" value="- booking: Booking[]" style="text;strokeColor=none;fillColor=none;align=left;verticalAlign=top;spacingLeft=4;spacingRight=4;overflow=hidden;rotatable=0;points=[[0,0.5],[1,0.5]];portConstraint=eastwest;whiteSpace=wrap;html=1;" vertex="1" parent="3COiVJJGD3iaCTCnuNtf-81">
          <mxGeometry y="26" width="160" height="26" as="geometry" />
        </mxCell>
        <mxCell id="3COiVJJGD3iaCTCnuNtf-83" value="" style="line;strokeWidth=1;fillColor=none;align=left;verticalAlign=middle;spacingTop=-1;spacingLeft=3;spacingRight=3;rotatable=0;labelPosition=right;points=[];portConstraint=eastwest;strokeColor=inherit;" vertex="1" parent="3COiVJJGD3iaCTCnuNtf-81">
          <mxGeometry y="52" width="160" height="8" as="geometry" />
        </mxCell>
        <mxCell id="3COiVJJGD3iaCTCnuNtf-84" value="+ static main(args: String[])" style="text;strokeColor=none;fillColor=none;align=left;verticalAlign=top;spacingLeft=4;spacingRight=4;overflow=hidden;rotatable=0;points=[[0,0.5],[1,0.5]];portConstraint=eastwest;whiteSpace=wrap;html=1;" vertex="1" parent="3COiVJJGD3iaCTCnuNtf-81">
          <mxGeometry y="60" width="160" height="26" as="geometry" />
        </mxCell>
        <mxCell id="3COiVJJGD3iaCTCnuNtf-85" value="1...*" style="text;html=1;align=center;verticalAlign=middle;whiteSpace=wrap;rounded=0;" vertex="1" parent="WIyWlLk6GJQsqaUBKTNV-1">
          <mxGeometry x="640" y="1818" width="60" height="30" as="geometry" />
        </mxCell>
        <mxCell id="3COiVJJGD3iaCTCnuNtf-86" value="1...*" style="text;html=1;align=center;verticalAlign=middle;whiteSpace=wrap;rounded=0;" vertex="1" parent="WIyWlLk6GJQsqaUBKTNV-1">
          <mxGeometry x="790" y="1303" width="60" height="30" as="geometry" />
        </mxCell>
        <mxCell id="3COiVJJGD3iaCTCnuNtf-87" value="0...*" style="text;html=1;align=center;verticalAlign=middle;whiteSpace=wrap;rounded=0;" vertex="1" parent="WIyWlLk6GJQsqaUBKTNV-1">
          <mxGeometry x="450" y="1303" width="60" height="30" as="geometry" />
        </mxCell>
        <mxCell id="3COiVJJGD3iaCTCnuNtf-88" value="&amp;lt;&amp;lt;throws&amp;gt;&amp;gt;" style="html=1;verticalAlign=bottom;labelBackgroundColor=none;endArrow=open;endFill=0;dashed=1;rounded=0;entryX=0.5;entryY=0;entryDx=0;entryDy=0;exitX=-0.002;exitY=0.786;exitDx=0;exitDy=0;exitPerimeter=0;" edge="1" parent="WIyWlLk6GJQsqaUBKTNV-1" source="3COiVJJGD3iaCTCnuNtf-25" target="3COiVJJGD3iaCTCnuNtf-34">
          <mxGeometry width="160" relative="1" as="geometry">
            <mxPoint x="500" y="1770" as="sourcePoint" />
            <mxPoint x="240" y="1968.5" as="targetPoint" />
            <Array as="points">
              <mxPoint x="460" y="1768" />
              <mxPoint x="460" y="1880" />
              <mxPoint x="390" y="1880" />
            </Array>
          </mxGeometry>
        </mxCell>
        <mxCell id="LENhPuQW1TlGsqmlRlLx-5" value="IllegalArgumentException" style="swimlane;fontStyle=1;align=center;verticalAlign=top;childLayout=stackLayout;horizontal=1;startSize=26;horizontalStack=0;resizeParent=1;resizeParentMax=0;resizeLast=0;collapsible=1;marginBottom=0;whiteSpace=wrap;html=1;" vertex="1" parent="WIyWlLk6GJQsqaUBKTNV-1">
          <mxGeometry x="490" y="1214" width="200" height="34" as="geometry" />
        </mxCell>
        <mxCell id="LENhPuQW1TlGsqmlRlLx-6" value="" style="line;strokeWidth=1;fillColor=none;align=left;verticalAlign=middle;spacingTop=-1;spacingLeft=3;spacingRight=3;rotatable=0;labelPosition=right;points=[];portConstraint=eastwest;strokeColor=inherit;" vertex="1" parent="LENhPuQW1TlGsqmlRlLx-5">
          <mxGeometry y="26" width="200" height="8" as="geometry" />
        </mxCell>
        <mxCell id="3COiVJJGD3iaCTCnuNtf-89" value="&amp;lt;&amp;lt;throws&amp;gt;&amp;gt;" style="html=1;verticalAlign=bottom;labelBackgroundColor=none;endArrow=open;endFill=0;dashed=1;rounded=0;entryX=0.25;entryY=0;entryDx=0;entryDy=0;exitX=0.548;exitY=1.009;exitDx=0;exitDy=0;exitPerimeter=0;" edge="1" parent="WIyWlLk6GJQsqaUBKTNV-1" source="3COiVJJGD3iaCTCnuNtf-33" target="3COiVJJGD3iaCTCnuNtf-34">
          <mxGeometry width="160" relative="1" as="geometry">
            <mxPoint x="530" y="1778" as="sourcePoint" />
            <mxPoint x="400" y="1918" as="targetPoint" />
            <Array as="points">
              <mxPoint x="287" y="1870" />
              <mxPoint x="340" y="1870" />
            </Array>
          </mxGeometry>
        </mxCell>
        <mxCell id="3COiVJJGD3iaCTCnuNtf-90" value="&amp;lt;&amp;lt;throws&amp;gt;&amp;gt;" style="html=1;verticalAlign=bottom;labelBackgroundColor=none;endArrow=open;endFill=0;dashed=1;rounded=0;exitX=1.005;exitY=0.425;exitDx=0;exitDy=0;entryX=0.5;entryY=1;entryDx=0;entryDy=0;exitPerimeter=0;" edge="1" parent="WIyWlLk6GJQsqaUBKTNV-1" source="3COiVJJGD3iaCTCnuNtf-3" target="LENhPuQW1TlGsqmlRlLx-5">
          <mxGeometry width="160" relative="1" as="geometry">
            <mxPoint x="480" y="1500" as="sourcePoint" />
            <mxPoint x="640" y="1500" as="targetPoint" />
            <Array as="points">
              <mxPoint x="590" y="1372" />
            </Array>
          </mxGeometry>
        </mxCell>
      </root>
    </mxGraphModel>
  </diagram>
</mxfile>
